<?xml version="1.0" encoding="UTF-8" standalone="no"?>
<!-- Created with Inkscape (http://www.inkscape.org/) -->

<svg
   xmlns:dc="http://purl.org/dc/elements/1.1/"
   xmlns:cc="http://creativecommons.org/ns#"
   xmlns:rdf="http://www.w3.org/1999/02/22-rdf-syntax-ns#"
   xmlns:svg="http://www.w3.org/2000/svg"
   xmlns="http://www.w3.org/2000/svg"
   xmlns:sodipodi="http://sodipodi.sourceforge.net/DTD/sodipodi-0.dtd"
   xmlns:inkscape="http://www.inkscape.org/namespaces/inkscape"
   version="1.1"
   width="200"
   height="100"
   id="svg2"
   inkscape:version="0.48.4 r9939"
   sodipodi:docname="bike_lane_car.svg"
   inkscape:export-filename="/home/keith/Documents/aptana-workspace/lab.vool.ie/whoislaneisitanyway/free/img/bike_lane_car.png"
   inkscape:export-xdpi="90"
   inkscape:export-ydpi="90">
  <sodipodi:namedview
     pagecolor="#ffffff"
     bordercolor="#666666"
     borderopacity="1"
     objecttolerance="10"
     gridtolerance="10"
     guidetolerance="10"
     inkscape:pageopacity="0"
     inkscape:pageshadow="2"
     inkscape:window-width="1600"
     inkscape:window-height="834"
     id="namedview13"
     showgrid="false"
     inkscape:zoom="2.36"
     inkscape:cx="131.43485"
     inkscape:cy="50"
     inkscape:window-x="0"
     inkscape:window-y="27"
     inkscape:window-maximized="1"
     inkscape:current-layer="svg2" />
  <defs
     id="defs4">
    <marker
       refX="0"
       refY="0"
       orient="auto"
       id="Arrow1Lend"
       style="overflow:visible">
      <path
         d="M 0,0 5,-5 -12.5,0 5,5 0,0 z"
         transform="matrix(-0.8,0,0,-0.8,-10,0)"
         id="path3796"
         style="fill-rule:evenodd;stroke:#000000;stroke-width:1pt"
         inkscape:connector-curvature="0" />
    </marker>
    <marker
       refX="0"
       refY="0"
       orient="auto"
       id="Arrow1Lend2"
       style="overflow:visible">
      <path
         d="M 0,0 5,-5 -12.5,0 5,5 0,0 z"
         transform="matrix(-0.8,0,0,-0.8,-10,0)"
         id="path4238"
         style="fill:#000000;fill-rule:evenodd;stroke:#000000;stroke-width:1pt"
         inkscape:connector-curvature="0" />
    </marker>
    <marker
       refX="0"
       refY="0"
       orient="auto"
       id="Arrow1Lend2a"
       style="overflow:visible">
      <path
         d="M 0,0 5,-5 -12.5,0 5,5 0,0 z"
         transform="matrix(-0.8,0,0,-0.8,-10,0)"
         id="path4262"
         style="fill:#000000;fill-rule:evenodd;stroke:#000000;stroke-width:1pt"
         inkscape:connector-curvature="0" />
    </marker>
  </defs>
  <metadata
     id="metadata7">
    <rdf:RDF>
      <cc:Work
         rdf:about="">
        <dc:format>image/svg+xml</dc:format>
        <dc:type
           rdf:resource="http://purl.org/dc/dcmitype/StillImage" />
        <dc:title></dc:title>
      </cc:Work>
    </rdf:RDF>
  </metadata>
  <g
     id="g3779"
     transform="matrix(2.1812264,0,0,2.1812264,-494.57776,-2074.195)">
    <path
       style="fill:#272b30;fill-opacity:1"
       d="M 132.09375 4.40625 C 131.75348 4.3735316 131.53494 4.4592268 131.40625 4.625 C 131.22739 4.85621 131.25868 5.1909787 131.34375 5.53125 C 131.40701 5.742829 131.6198 6.4022585 131.875 7.1875 C 132.30034 8.5245918 132.89094 10.349367 133 10.78125 C 133.06762 11.062628 133.14748 11.31749 133.25 11.53125 C 94.701186 11.505075 40.019742 11.892906 31.78125 12.46875 C 19.38534 13.360872 9.4605088 16.376113 6.8125 18.71875 C 4.1274103 21.091924 0 31.727866 0 50 C 0.0021812264 68.272134 4.1295915 78.905182 6.8125 81.25 C 9.4605088 83.625356 19.38534 86.639128 31.78125 87.53125 C 40.021923 88.13545 94.703367 88.494925 133.25 88.46875 C 133.15184 88.667242 133.0698 88.919922 133 89.21875 C 132.88876 89.687714 132.28872 91.561146 131.84375 92.9375 C 131.60818 93.668211 131.40482 94.261533 131.34375 94.46875 C 131.26086 94.819927 131.22957 95.181584 131.40625 95.40625 C 131.50877 95.537124 131.65688 95.59375 131.875 95.59375 C 131.94044 95.59375 132.00797 95.606837 132.0625 95.59375 L 132.1875 95.59375 C 133.66419 95.390896 134.86077 94.893975 135.78125 93.125 C 136.24803 92.219791 136.93942 91.052021 137.5 90.125 C 137.94061 89.394289 138.27827 88.798115 138.4375 88.46875 C 139.77895 88.466569 141.11715 88.439681 142.40625 88.4375 C 148.91503 88.4375 154.40919 88.912081 159.125 88.875 C 168.87072 88.770301 190.13847 87.116002 194.0625 79.75 C 196.0954 75.92631 200 62.118894 200 50 C 199.99782 37.920368 196.0954 24.10494 194.0625 20.28125 C 190.13629 12.878168 168.86854 11.260949 159.125 11.15625 C 154.40919 11.086451 148.91503 11.56615 142.40625 11.53125 C 141.11278 11.529069 139.78332 11.533431 138.4375 11.53125 C 138.28918 11.236784 137.96166 10.669637 137.5625 10 C 136.97793 9.0249918 136.2633 7.8260147 135.78125 6.875 C 134.85641 5.1365626 133.66201 4.6403541 132.1875 4.4375 C 132.17659 4.4375 132.16497 4.4353188 132.15625 4.4375 C 132.13008 4.4200502 132.12647 4.4106125 132.09375 4.40625 z "
       id="path3803"
       transform="matrix(0.45845768,0,0,0.45845768,226.74297,950.93063)" />
  </g>
  <g
     transform="matrix(2.1812264,0,0,2.1812264,-494.57776,-2074.195)"
     id="layer1">
    <path
       d="m 315.71774,960.23037 c -1.8,-3.394 -11.554,-4.135 -16.021,-4.183 -2.162,-0.032 -4.687,0.189 -7.671,0.173 -0.593,-10e-4 -1.198,-0.002 -1.815,-0.003 -0.068,-0.135 -0.219,-0.388 -0.402,-0.695 -0.268,-0.447 -0.601,-1.002 -0.822,-1.438 -0.424,-0.797 -0.961,-1.022 -1.637,-1.115 -0.005,0 -0.01,10e-4 -0.014,0.002 -0.012,-0.008 -0.023,-0.016 -0.038,-0.018 -0.156,-0.015 -0.257,0.016 -0.316,0.092 -0.082,0.106 -0.058,0.262 -0.019,0.418 0.029,0.097 0.125,0.4 0.242,0.76 0.195,0.613 0.465,1.453 0.515,1.651 0.031,0.129 0.065,0.241 0.112,0.339 -17.673,-0.012 -42.744,0.169 -46.521,0.433 -5.683,0.409 -10.229,1.799 -11.443,2.873 -1.231,1.088 -3.125,5.962 -3.125,14.339 0.001,8.377 1.895,13.25 3.125,14.325 1.214,1.089 5.76,2.463 11.443,2.872 3.778,0.277 28.85,0.447 46.522,0.435 -0.045,0.091 -0.081,0.2 -0.113,0.337 -0.051,0.215 -0.329,1.078 -0.533,1.709 -0.108,0.335 -0.197,0.61 -0.225,0.705 -0.038,0.161 -0.061,0.324 0.02,0.427 0.047,0.06 0.122,0.089 0.222,0.089 0.03,0 0.063,-0.002 0.088,-0.008 h 0.048 c 0.004,0 0.006,0 0.011,0 0.677,-0.093 1.215,-0.32 1.637,-1.131 0.214,-0.415 0.53,-0.948 0.787,-1.373 0.202,-0.335 0.366,-0.609 0.439,-0.76 0.615,-10e-4 1.222,-0.002 1.813,-0.003 2.984,0 5.509,0.206 7.671,0.189 4.468,-0.048 14.222,-0.806 16.021,-4.183 0.932,-1.753 2.716,-8.082 2.716,-13.638 -10e-4,-5.538 -1.785,-11.867 -2.717,-13.62 z m -44.764,-2.447 c 6.692,-0.142 13.132,-0.206 17.537,-0.206 l -0.648,0.868 c -6.597,0.995 -12.643,1.768 -18.562,1.879 0.505,-0.914 1.136,-1.878 1.673,-2.541 z m -36.178,26.108 c -0.964,0 -1.279,-0.315 -1.453,-1.122 -0.584,-2.762 -0.853,-5.635 -0.853,-8.917 0,-3.267 0.268,-6.14 0.853,-8.902 0.174,-0.805 0.489,-1.12 1.453,-1.12 1.925,0 4.592,0 7.513,0 1.009,0 1.39,0.441 1.327,1.262 -0.253,2.999 -0.333,5.494 -0.333,8.761 0,3.283 0.08,5.778 0.333,8.776 0.063,0.82 -0.317,1.264 -1.327,1.264 -2.921,-0.002 -5.588,-0.002 -7.513,-0.002 z m 14.995,3.978 -1.137,0.504 c -0.616,0.302 -0.931,0.333 -1.578,0.269 -0.679,-0.077 -1.295,-0.158 -1.91,-0.269 -0.174,-0.046 -0.711,-0.156 -1.374,-0.315 -0.758,-0.173 -0.79,-0.283 0.032,-0.331 1.784,-0.079 3.725,-0.159 5.903,-0.204 0.506,-10e-4 0.538,0.124 0.064,0.346 z m -0.063,-27.687 c -2.179,-0.047 -4.12,-0.11 -5.903,-0.205 -0.821,-0.032 -0.79,-0.158 -0.032,-0.331 0.663,-0.158 1.2,-0.269 1.374,-0.3 0.615,-0.111 1.23,-0.207 1.91,-0.269 0.646,-0.079 0.962,-0.031 1.578,0.252 l 1.137,0.506 c 0.473,0.237 0.441,0.364 -0.064,0.347 z m 17.586,-2.336 c -0.363,0.742 -0.679,1.626 -0.931,2.495 -5.682,-0.015 -10.212,-0.032 -14.016,-0.079 l -0.653,-0.941 -0.563,-0.875 c 4.642,-0.268 10.402,-0.457 16.163,-0.6 z m -15.834,31.412 0.591,-0.917 0.624,-0.883 c 3.804,-0.062 8.335,-0.079 14.018,-0.079 0.252,0.853 0.568,1.753 0.931,2.479 -5.762,-0.127 -11.523,-0.333 -16.164,-0.6 z m 19.494,0.677 c -0.537,-0.662 -1.168,-1.624 -1.673,-2.54 5.919,0.11 11.965,0.868 18.562,1.862 l 0.648,0.884 c -4.404,-0.016 -10.845,-0.063 -17.537,-0.206 z m 27.963,-2.666 c -0.477,1.039 -0.672,1.367 -1.613,1.367 -0.309,0 -0.696,-0.036 -1.183,-0.09 -1.876,-0.211 -4.152,-0.546 -6.789,-0.933 -1.688,-0.248 -3.433,-0.504 -5.272,-0.757 -1.263,-0.176 -1.715,-0.705 -1.614,-1.884 0.43,-3.845 0.647,-7.586 0.647,-11.122 0,-3.544 -0.218,-7.28 -0.646,-11.103 -0.102,-1.199 0.352,-1.727 1.615,-1.886 1.811,-0.25 3.533,-0.504 5.199,-0.751 2.665,-0.395 4.968,-0.734 6.861,-0.939 0.513,-0.057 0.892,-0.092 1.198,-0.092 0.931,0 1.125,0.329 1.597,1.369 1.725,3.822 2.723,7.24 2.723,13.402 -0.001,6.18 -0.999,9.597 -2.723,13.419 z m 16.324,-4.388 c -0.646,2.009 -1.288,3.386 -2.018,4.329 -0.743,0.979 -1.389,1.266 -2.319,1.45 -1.162,0.226 -3.712,0.286 -5.035,0.286 -0.22,0 -0.295,-0.089 -0.317,-0.162 -0.055,-0.176 0.134,-0.408 0.288,-0.518 0.47,-0.355 1.601,-1.415 2.277,-2.047 0.245,-0.229 0.428,-0.398 0.494,-0.458 0.056,-0.052 0.104,-0.112 0.155,-0.177 0.155,-0.19 0.33,-0.407 0.82,-0.565 2.488,-0.739 4.379,-1.578 5.339,-2.369 0.182,-0.145 0.285,-0.152 0.341,-0.072 0.04,0.058 0.032,0.148 -0.025,0.303 z m 0.025,-17.741 c -0.022,0.031 -0.057,0.049 -0.096,0.049 -0.062,0 -0.137,-0.042 -0.246,-0.136 -0.958,-0.788 -2.847,-1.627 -5.319,-2.362 -0.507,-0.153 -0.683,-0.374 -0.838,-0.569 -0.051,-0.064 -0.1,-0.126 -0.159,-0.181 -0.062,-0.056 -0.23,-0.212 -0.455,-0.424 -0.642,-0.599 -1.836,-1.714 -2.314,-2.064 -0.153,-0.11 -0.346,-0.348 -0.287,-0.529 0.024,-0.076 0.099,-0.167 0.317,-0.167 1.788,0 4.039,0.093 5.035,0.302 0.93,0.185 1.573,0.468 2.319,1.433 0.742,0.975 1.382,2.357 2.018,4.35 0.056,0.151 0.065,0.241 0.025,0.298 z"
       id="path3301"
       style="fill:#ffffff"
       inkscape:connector-curvature="0" />
  </g>
</svg>
