<?xml version="1.0" encoding="UTF-8" standalone="no"?>
<!-- Created with Inkscape (http://www.inkscape.org/) -->

<svg
   xmlns:dc="http://purl.org/dc/elements/1.1/"
   xmlns:cc="http://creativecommons.org/ns#"
   xmlns:rdf="http://www.w3.org/1999/02/22-rdf-syntax-ns#"
   xmlns:svg="http://www.w3.org/2000/svg"
   xmlns="http://www.w3.org/2000/svg"
   version="1.1"
   width="61.235165"
   height="100"
   id="svg2">
  <defs
     id="defs4">
    <marker
       refX="0"
       refY="0"
       orient="auto"
       id="Arrow1Lend"
       style="overflow:visible">
      <path
         d="M 0,0 5,-5 -12.5,0 5,5 0,0 z"
         transform="matrix(-0.8,0,0,-0.8,-10,0)"
         id="path3796"
         style="fill-rule:evenodd;stroke:#000000;stroke-width:1pt" />
    </marker>
    <marker
       refX="0"
       refY="0"
       orient="auto"
       id="Arrow1Lend2"
       style="overflow:visible">
      <path
         d="M 0,0 5,-5 -12.5,0 5,5 0,0 z"
         transform="matrix(-0.8,0,0,-0.8,-10,0)"
         id="path4238"
         style="fill:#000000;fill-rule:evenodd;stroke:#000000;stroke-width:1pt" />
    </marker>
    <marker
       refX="0"
       refY="0"
       orient="auto"
       id="Arrow1Lend2a"
       style="overflow:visible">
      <path
         d="M 0,0 5,-5 -12.5,0 5,5 0,0 z"
         transform="matrix(-0.8,0,0,-0.8,-10,0)"
         id="path4262"
         style="fill:#000000;fill-rule:evenodd;stroke:#000000;stroke-width:1pt" />
    </marker>
  </defs>
  <metadata
     id="metadata7">
    <rdf:RDF>
      <cc:Work
         rdf:about="">
        <dc:format>image/svg+xml</dc:format>
        <dc:type
           rdf:resource="http://purl.org/dc/dcmitype/StillImage" />
        <dc:title></dc:title>
      </cc:Work>
    </rdf:RDF>
  </metadata>
  <g
     transform="translate(-222.58874,-923.85353)"
     id="layer1">
    <path
       d="m 283.82391,965.95707 -0.0917,-4.01326 c -0.099,-4.31092 -0.2451,-5.20361 -1.06805,-6.60786 -0.86331,-1.47313 -3.02995,-2.71465 -7.03939,-4.04024 -0.92457,-0.30567 -4.57534,-1.43136 -8.11283,-2.50289 l -6.42985,-1.95269 0.0863,-0.84149 c 0.0475,-0.46373 0.0743,-1.89012 0.0647,-3.17177 -0.0304,-4.08135 -1.12667,-7.4495 -3.53857,-10.87465 -3.00633,-4.26929 -7.78939,-7.17493 -13.09705,-7.95101 -2.097,-0.30662 -5.37637,-0.12114 -7.47092,0.42075 -7.68946,1.98936 -13.45332,8.58212 -14.44559,16.52773 -0.1788,1.43169 -0.0869,4.29558 0.1834,5.79874 1.04554,5.81431 4.90919,11.03795 10.16801,13.74974 6.39916,3.29982 14.01625,2.80576 19.94764,-1.2946 2.53878,-1.75506 4.84451,-4.38584 6.21948,-7.09873 0.32479,-0.64083 0.63774,-1.16514 0.69585,-1.16514 0.28259,0 4.02925,1.2742 4.01326,1.36472 -0.0642,0.36339 -12.21417,11.33725 -18.27545,16.50616 -3.65903,3.12034 -5.77779,5.12653 -6.32736,5.99293 -0.77533,1.22231 -0.9224,2.29319 -0.9224,6.64562 0,3.07475 -0.051,4.03952 -0.21577,4.08338 -3.98175,1.05972 -6.73013,2.5467 -9.32652,5.04895 -1.71713,1.65486 -2.89185,3.24669 -3.92156,5.32404 -5.07184,10.2319 -0.34072,22.5154 10.29208,26.7227 2.5705,1.0172 3.89685,1.241 7.22818,1.2245 2.59079,-0.013 3.12736,-0.065 4.61741,-0.4639 3.31104,-0.8855 6.45135,-2.6792 8.84105,-5.0489 4.89545,-4.8546 6.86511,-12.0762 5.10828,-18.71781 -0.18766,-0.70943 -0.3259,-1.30438 -0.30747,-1.32158 0.0184,-0.0172 1.16406,-0.53414 2.54065,-1.14895 1.3766,-0.61482 3.99005,-1.787 5.80953,-2.60539 1.81947,-0.81839 3.37299,-1.48793 3.45227,-1.48879 0.0793,-8.6e-4 0.94182,0.28002 1.91493,0.62572 l 1.76928,0.62573 0,2.2224 0,2.22239 1.89875,0 1.89875,0 0,-8.53897 c 0,-8.26489 -0.0112,-8.54401 -0.33444,-8.71698 -0.81627,-0.43685 -1.37342,-0.0488 -1.7531,1.22448 -0.0955,0.32019 -0.48249,2.01744 -0.86307,3.77053 -0.38058,1.75309 -0.73042,3.22252 -0.77676,3.26886 -0.0464,0.0464 -0.88063,-0.18929 -1.8502,-0.52863 l -1.7585,-0.62033 -0.0486,-16.85138 c -0.0358,-13.71115 10e-4,-16.85139 0.1834,-16.85139 0.43733,0 4.53296,1.22791 5.25392,1.57509 1.55993,0.7512 1.78035,1.4351 1.89875,5.97675 l 0.0917,3.49542 1.89875,0 1.89875,0 z m -15.40575,-12.10991 0,16.51695 c 0,15.66294 -0.0156,16.51057 -0.30208,16.39288 -0.16614,-0.0683 -5.81707,-2.18338 -12.55762,-4.69832 -6.74056,-2.51494 -12.32389,-4.6314 -12.4012,-4.70372 -0.0773,-0.0723 1.28202,-1.44067 3.02073,-3.04231 1.73872,-1.60164 4.21501,-3.88287 5.49666,-5.06513 1.28166,-1.18226 2.75631,-2.54015 3.27966,-3.02073 5.3651,-4.92672 9.56118,-8.78161 11.32776,-10.41075 l 2.13609,-1.96887 z m -1.82323,36.99861 c 0.0255,0.0928 -0.34897,0.33564 -0.87386,0.56639 -0.55988,0.24613 -2.31934,1.04106 -3.91077,1.76389 -1.59143,0.72283 -2.92016,1.28438 -2.95061,1.24606 -0.0304,-0.0383 -0.40912,-0.5811 -0.84689,-1.2029 -1.14491,-1.62624 -3.766,-4.08529 -5.46429,-5.12986 -2.63685,-1.62185 -5.84423,-2.68913 -8.75474,-2.91285 l -1.44024,-0.11328 0,-1.78008 0,-1.78547 0.81991,0.31826 c 0.45095,0.17577 5.86886,2.24352 12.03979,4.59583 6.17093,2.35231 11.28571,4.34151 11.37091,4.41783 0.005,0.005 0.009,0.01 0.0108,0.0162 z m -9.50992,13.43683 c 0.0524,3.702 -1.40688,7.6119 -3.88381,10.2598 -2.03768,2.1783 -4.4914,3.6709 -7.3091,4.434 -2.11462,0.5727 -5.4989,0.53 -7.56262,-0.092 -5.34722,-1.611 -9.26912,-5.669 -10.47009,-10.8423 -1.17832,-5.0758 0.10458,-9.91064 3.63028,-13.67963 1.67164,-1.78699 3.39352,-2.91845 5.81491,-3.82986 l 1.10041,-0.41535 -0.0539,7.63814 c -0.0601,8.152 -0.0197,8.6429 0.77137,9.1971 0.46288,0.3242 1.4289,0.3338 2.30331,0.021 0.36795,-0.1314 3.861,-1.6849 7.7676,-3.4522 3.90661,-1.7674 7.14785,-3.215 7.20122,-3.215 0.17135,0 0.47984,1.3971 0.62573,2.832 0.0383,0.3768 0.0593,0.7606 0.0647,1.1435 z m -0.31826,-60.26362 c 0.002,0.18909 0.003,0.36578 0,0.52323 -0.009,0.41987 -0.0395,0.70842 -0.0917,0.76058 -0.0485,0.0485 -2.9228,-0.80547 -6.3867,-1.89875 -6.50081,-2.05179 -7.9703,-2.3733 -8.95972,-1.96348 -1.3369,0.55377 -1.52583,2.51195 -0.31286,3.25808 0.70318,0.43255 3.242,1.30382 9.40744,3.22572 2.68198,0.83603 4.87633,1.60488 4.87633,1.70995 0,0.42345 -1.36177,2.45906 -2.38423,3.56555 -3.35408,3.6297 -7.99013,5.39869 -12.61157,4.81699 -6.06511,-0.76342 -10.76066,-4.70814 -12.63315,-10.61573 -0.49024,-1.5467 -0.63816,-5.6212 -0.26431,-7.26595 0.64415,-2.83386 2.13105,-5.44341 4.31534,-7.57881 8.20864,-8.02488 21.99496,-3.87167 24.72148,7.44935 0.17475,0.72562 0.30984,2.6896 0.32365,4.01327 z m -2.17385,52.35042 c 0.003,0.0196 -0.002,0.0351 -0.0108,0.0431 -0.12438,0.1193 -11.94788,5.4482 -12.08833,5.4482 -0.0785,0 -0.14025,-2.76366 -0.14025,-6.13865 l 0,-6.13317 1.07883,0.10788 c 3.41781,0.34422 6.46586,1.70939 8.95432,4.01327 0.90071,0.83389 2.16247,2.36551 2.20622,2.65932 z"
       id="path3012"
       style="fill:#ffffff" />
  </g>
</svg>
