<?xml version="1.0" encoding="UTF-8" standalone="no"?>
<!-- Generator: Adobe Illustrator 15.0.2, SVG Export Plug-In . SVG Version: 6.00 Build 0)  -->

<svg
   xmlns:dc="http://purl.org/dc/elements/1.1/"
   xmlns:cc="http://creativecommons.org/ns#"
   xmlns:rdf="http://www.w3.org/1999/02/22-rdf-syntax-ns#"
   xmlns:svg="http://www.w3.org/2000/svg"
   xmlns="http://www.w3.org/2000/svg"
   xmlns:sodipodi="http://sodipodi.sourceforge.net/DTD/sodipodi-0.dtd"
   xmlns:inkscape="http://www.inkscape.org/namespaces/inkscape"
   version="1.1"
   id="Layer_1"
   x="0px"
   y="0px"
   width="120"
   height="90"
   viewBox="0 0 120 90"
   enable-background="new 0 0 512 512"
   xml:space="preserve"
   inkscape:version="0.48.4 r9939"
   sodipodi:docname="play.svg"
   inkscape:export-filename="/home/keith/Documents/aptana-workspace/freethecyclelanes.vool.ie/img/play.png"
   inkscape:export-xdpi="90"
   inkscape:export-ydpi="90"><metadata
     id="metadata9"><rdf:RDF><cc:Work
         rdf:about=""><dc:format>image/svg+xml</dc:format><dc:type
           rdf:resource="http://purl.org/dc/dcmitype/StillImage" /><dc:title></dc:title></cc:Work></rdf:RDF></metadata><defs
     id="defs7" /><sodipodi:namedview
     pagecolor="#ffffff"
     bordercolor="#666666"
     borderopacity="1"
     objecttolerance="10"
     gridtolerance="10"
     guidetolerance="10"
     inkscape:pageopacity="0"
     inkscape:pageshadow="2"
     inkscape:window-width="1600"
     inkscape:window-height="834"
     id="namedview5"
     showgrid="false"
     inkscape:zoom="4.2747835"
     inkscape:cx="21.163914"
     inkscape:cy="33.606257"
     inkscape:window-x="0"
     inkscape:window-y="27"
     inkscape:window-maximized="1"
     inkscape:current-layer="Layer_1" /><path
     d="M 54.410626,57.576106 71.178763,45 54.410626,32.423894 V 57.576106 z M 60,17.053101 C 44.559559,17.053101 32.053101,29.559559 32.053101,45 32.053101,60.440441 44.559559,72.946899 60,72.946899 75.440441,72.946899 87.946899,60.440441 87.946899,45 87.946899,29.559559 75.440441,17.053101 60,17.053101 z m 0,50.304424 C 47.675632,67.357525 37.642475,57.325026 37.642475,45 37.642475,32.675632 47.675632,22.642475 60,22.642475 72.325026,22.642475 82.357525,32.675632 82.357525,45 82.357525,57.325026 72.325026,67.357525 60,67.357525 z"
     id="path3"
     inkscape:connector-curvature="0"
     style="opacity:0.75;fill:#e6e6e6" /></svg>